<svg version="1.1" id="Layer_1" xmlns="http://www.w3.org/2000/svg" x="0" y="0" width="230.8" height="219.3" viewBox="0 0 230.8 219.3" xml:space="preserve"><style type="text/css">.st0{fill:#fff}</style><title>Seventh-Day Adventist Church Logo</title><path class="st0" d="M158.5 139.5c.9 0 1.7.2 2.4.2 1.8 0 3.6-.2 6-.2 5 0 9.8 3.8 9.8 8.8 0 6.3-3 10.7-10.7 10.7-1.4 0-2.9-.2-4.2-.2l-3 .2c-.2 0-.3-.1-.3-.3 0-.6 2 .2 2-2.6v-13.6c0-2.9-2.3-2-2.3-2.7-.2-.2 0-.3.3-.3zm8.5 18.8c3.9 0 7.7-2.1 7.7-8.6 0-6.2-4.1-9.7-9.4-9.7-2.7 0-2.7.5-2.7 1.8v13.3c-.1.7-.1 1.3.2 2 1.1.9 2.6 1.3 4.2 1.2zm14.9-6.9c-.5-.1-1.1.1-1.4.6l-1.8 3.9c-.2.3-.3.6-.3.9 0 2 2 1.1 2 1.8 0 .8-.5.5-.8.5-.8 0-1.5-.2-2.3-.2-.8 0-1.5.2-2.3.2-.2 0-.3-.1-.3-.3 0-.6 1.4-.2 2-1.8l6.6-14c1.7-3.5 1.7-3.9 2.1-3.9.3.2.5.6.6.9l5.9 14.3c.4 1.1.8 2.2 1.4 3.2.9 1.2 2.4.6 2.4 1.4 0 .1 0 .3-.2.3h-.1c-1.2 0-2.3-.2-3.5-.2-.8 0-1.5.2-2.3.2-.2 0-.6 0-.6-.3 0-.8 1.7-.3 1.7-1.4-.2-.9-.5-1.8-.8-2.7l-.9-2.3c-.1-.6-.6-1-1.2-1.1h-5.9zm5.6-1.2c.6 0 .6-.2.5-.5l-2.7-6.6c-.2-.3-.3-.3-.5 0l-3 6.8c-.2.3 0 .5.3.5h5.4v-.2zm5.3-10.7c.8 0 1.2.2 3 .2.9 0 1.7-.2 2-.2.3 0 .6 0 .6.3s-1.2.5-1.2 1.2c.1.4.2.8.5 1.2l3.3 5.4.6.6c.3-.1.5-.3.6-.6l2.9-4.5c.3-.4.6-1 .6-1.5 0-1.4-2.1-.8-2.1-1.5 0-.3.3-.3.6-.3.6 0 1.4.2 2 .2.6 0 1.7-.2 2.4-.2.2 0 .3.1.3.3-.1.3-.3.5-.6.5-.7.5-1.2 1.2-1.5 2l-3.9 6c-.3.3-.6.7-.6 1.2v6.8c0 2.4 2.3 1.7 2.3 2.4 0 .3-.2.3-.6.3-.5 0-2-.2-3-.2-1.1 0-2.3.2-2.6.2-.1 0-.3 0-.3-.2v-.1c0-.8 2.1 0 2.1-2v-7c-.1-.5-.3-1-.6-1.4l-4.7-7.4c-.8-1.2-2-.8-2-1.4-.6 0-.4-.3-.1-.3zM166.2 166c1.5 0 2.9.2 4.4.2 1.5 0 2.6-.2 3.8-.2.6 0 .8.2.8.3 0 .9-2.9.2-2.9 3V191c0 2.9 3.5 1.8 3.5 3 0 .3-.2.3-.8.3-.9 0-2.7-.2-4.4-.2-2.4 0-3.3.2-3.9.2-.6 0-.8-.2-.8-.6 0-1.2 3 .2 3-3.8v-20.7c0-2.9-3.3-2.1-3.3-3 .1-.1.4-.2.6-.2zM151 201.6c.9 0 1.8.2 2.7.2s1.7-.2 2.3-.2c.6 0 .5.2.5.2 0 .6-1.8.2-1.8 2v5.3c0 .3 0 .5.3.5h9.1c.3 0 .2-.6.2-.8v-5c0-1.8-1.8-1.4-1.8-1.8 0-.2.2-.3.4-.3.8 0 2.1.2 2.6.2.9 0 1.2-.2 1.8-.2s.8.2.8.3c0 .5-1.7 0-1.7 1.8v13c0 1.8 2.3 1.4 2.3 2 0 .2-.1.3-.3.3-.6 0-1.4-.2-2.3-.2-1.7 0-2.3.2-2.7.2-.2 0-.5.2-.5-.3s1.7-.2 1.7-1.8v-6c0-.3.2-.6-.2-.6h-9.1c-.3 0-.3.2-.3.5v6c0 1.7 2.3 1.2 2.3 2 0 .2-.2.2-.3.2-.2 0-2.1-.2-3.5-.2-.7 0-1.4 0-2.1.2-.2 0-.3-.1-.3-.3 0-.8 2 .2 2-2.4v-12.5c0-1.8-2.3-1.4-2.3-1.8s-.2-.5.2-.5zm-65.6-53.1c2.9 0 2.1-2.3 2.9-2.3.3 0 .3.3.3.6v5c0 .1 0 .3-.2.3h-.1c-.9 0 .2-2.4-2.3-2.4h-4c-.6 0-.6.5-.6.9v4.9c0 1.7-.2 2.4 2.1 2.4 6.5 0 7.4-2.9 7.7-2.9s.2.3.2.3c-.2 1-.6 2-1.4 2.7-.7.8-1.7 1.1-2.7.9-2.1 0-4.2-.2-6.3-.2-1.2 0-2.3.2-3.3.2-.2 0-.4-.1-.4-.3.3-.4.7-.6 1.2-.8.8-.3.8-1.2.8-2.4V143c0-1.2 0-2.6-1.5-2.9-.4 0-.7-.1-.9-.5 0-.2.2-.3.9-.3 5.3 0 6.6.2 7.8.2.6 0 3-.2 3.9-.2.3 0 .3.3.3.6 0 3-.3 3.3-.6 3.3-.8 0-.2-1.4-.8-2-.8-.9-3.6-.8-4.7-.8-2.7 0-2.7-.2-2.7 1.8v5.1c0 .9 0 .9 1.1.9l3.3.3zm5.6-9c.5 0 .9.2 1.4.2s.8-.2 1.2-.2c.3.1.6.3.8.6l13.3 14.6.3.3c.1-.1.1-.2.2-.3v-11.6c0-3.6-3-2.6-3-3.5 0-.2.1-.3.3-.3.8 0 1.7.2 2.4.2.8 0 2.1-.2 2.9-.2.1 0 .2.1.3.2 0 .8-1.7.3-1.7 2.3v16c.1.4 0 .8-.2 1.2-.5-.1-.9-.3-1.1-.8l-11.9-13.4c-.2 0-.5-.5-.6-.5s-.2.2-.2.8v11.3c0 2.6 2.4 1.7 2.4 2.3 0 .1 0 .3-.2.3h-.1c-.8 0-1.4-.2-2.9-.2-.9 0-2.4.2-2.6.2-.1 0-.3 0-.3-.2v-.1c0-.9 2.4.3 2.4-3.8v-10.3c0-5.7-3.3-4.1-3.3-5.1-.2.1.1 0 .2 0zm22.8 1.5c-1.8 0-1.8.5-2.3 2-.2.3-.2.6-.5.6-.2 0-.3-.1-.3-.3l.3-2.8c.2-.3 0-1.1.6-1.1 2.1 0 4.4.2 7.8.2 5 0 7.5-.2 8.2-.2s.8.2.8.8l.2 2.3c0 .3 0 .6-.3.6-.9 0 .5-2.1-2.3-2.1h-3.9c-1.2 0-1.2-.2-1.2 1.4v14.2c0 2.3 2.3 1.4 2.3 2.3 0 .1 0 .3-.2.3h-.1c-.8 0-1.5-.2-2.3-.2-1.3 0-2.5 0-3.8.2-.1 0-.3 0-.3-.2v-.1c0-.8 2.3-.3 2.3-2v-14.5c0-.2.2-1.2-.3-1.2l-4.7-.2zm14.7-1.5c1.1 0 2 .2 3 .2 1.1 0 1.8-.2 2.6-.2.5 0 .5.2.5.3 0 .5-2 0-2 2.1v6c0 .3 0 .5.3.5H143c.3 0 .3-.8.3-.8V142c0-2-2.1-1.5-2.1-2.1 0-.2.2-.3.6-.3.9 0 2.3.2 2.9.2 1.1 0 1.5-.2 2-.2.8 0 .8.3.8.5 0 .5-1.8 0-1.8 2v14.6c0 2 2.4 1.5 2.4 2.3 0 .2-.1.3-.3.3-.8 0-1.7-.2-2.7-.2-1.8 0-2.6.2-3 .2-.2 0-.6.2-.6-.3 0-.8 2-.3 2-2v-7c0-.5.2-.8-.3-.8h-10.3c-.3 0-.3.2-.3.5v6.9c0 2 2.6 1.4 2.6 2.3 0 .2-.2.2-.5.2s-2.4-.2-3.8-.2c-.8 0-1.6 0-2.4.2-.3 0-.3-.2-.3-.5 0-.8 2.3.2 2.3-2.6v-14.2c0-2-2.4-1.5-2.4-2.1-.1-.2.1-.3.4-.2zm28.6 9.8c0 1.4.2 1.4-.9 1.7l-5.6 2c-.4.2-.8.3-1.2.5-.5 0-.3-.5-.3-.8 0-1.4-.2-1.4.9-1.8l5.6-2c.4-.2.8-.3 1.2-.5.5 0 .3.6.3.9zm-54.9 29.8c4.2 0 3.2-3.3 4.1-3.3.3.1.5.4.5.8 0 1.4-.2 2.7-.2 4.1 0 1.1.2 2.1.2 3.2 0 .3-.2.6-.4.6-1.2 0 .2-3.5-3.3-3.5h-6c-.9 0-.8.8-.8 1.4v7.4c0 2.4-.3 3.3 3 3.3 9.4 0 10.7-4.1 11.3-4.1.2 0 .3.2.3.4-.2 1.5-.9 2.9-2 3.9-1 1.1-2.5 1.6-3.9 1.4-3 0-6.2-.2-9.2-.2-1.7 0-3.3.2-5 .2-.2 0-.5-.1-.6-.3.2-.5.6-.5 1.8-1.1 1.2-.6 1.2-1.5 1.2-3.5v-18.4c0-1.8 0-3.8-2.1-4.1-.3-.2-1.2-.2-1.2-.8 0-.3.3-.5 1.4-.5 7.5 0 9.7.2 11.5.2.8 0 4.5-.2 5.7-.2.3 0 .5.3.5.9 0 4.5-.6 4.8-.8 4.8-.9 0-.3-2-.9-2.9-1.1-1.4-5.3-1.2-6.9-1.2-3.9 0-3.8-.2-3.8 2.6v7.5c0 1.4-.2 1.4 1.5 1.4h4.2c-.1.2-.1 0-.1 0zm8.9-13.1c.8 0 1.4.2 2 .2s1.2-.2 1.8-.2c.4.2.8.5 1.1.9l19.3 21.4c.1.2.2.4.5.5.2 0 .2-.2.2-.5v-16.9c0-5.3-4.5-3.8-4.5-5.1 0-.3.2-.3.5-.3 1.2 0 2.4.2 3.6.2s3.2-.2 4.1-.2c.2 0 .3.1.3.3 0 1.1-2.4.3-2.4 3.3V193c0 1.2 0 1.8-.3 1.8-.7-.1-1.2-.6-1.5-1.2L118.2 174c-.3-.3-.6-.5-.9-.8-.2 0-.3.2-.3.9v16.6c0 3.6 3.5 2.3 3.5 3.3 0 .3 0 .6-.5.6-.9 0-2.1-.2-4.1-.2-1.4 0-3.5.2-3.8.2-.6 0-.6-.2-.6-.5 0-1.4 3.5.3 3.5-5.3V174c0-8.3-4.8-6-4.8-7.5.4-.2.8-.5.9-.5zm33.2 2.3c-2.6 0-2.7.6-3.3 2.9-.2.5-.2.9-.8.9-.3 0-.3-.3-.3-.6l.5-3.9c0-.5 0-1.7.8-1.7 3.2 0 6.2.2 11.5.2 7.2 0 11-.2 11.8-.2.5-.1 1.1.2 1.2.7v.5l.2 3.3c0 .3.2.9-.5.9-1.5 0 .8-3-3.5-3H156c-1.5 0-1.7.2-1.7 2v20.5c0 3.5 3.3 2.1 3.3 3.3 0 .2.2.5-.3.5-.9 0-2.1-.2-3.3-.2-4.5 0-5.3.2-5.6.2-.3 0-.5-.2-.5-.6 0-.9 3.2-.6 3.2-3v-21c0-.3.2-1.8-.6-1.8h-6.2v.1zm-65.2 33.3c.9 0 1.8.2 2.7.2s1.5-.2 2.3-.2c.5 0 .5.2.5.2 0 .6-1.8.2-1.8 2v5.3c0 .3 0 .5.3.5h9.1c.3 0 .3-.6.3-.8v-5c0-1.8-1.8-1.4-1.8-1.8 0-.1 0-.3.2-.3h.1c.9 0 2.1.2 2.6.2.9 0 1.4-.2 1.8-.2s.6.2.6.3c0 .5-1.7 0-1.7 1.8v13c0 1.8 2.3 1.4 2.3 2 0 .2-.1.3-.3.3-.8 0-1.4-.2-2.3-.2-1.7 0-2.3.2-2.7.2s-.6.2-.6-.3 1.8-.2 1.8-1.8v-6c0-.3.2-.6-.3-.6H83c-.3 0-.3.2-.3.5v6c0 1.7 2.4 1.2 2.4 2 0 .2-.2.2-.5.2s-2.1-.2-3.5-.2c-.7-.1-1.3 0-2 .2-.1 0-.3 0-.3-.2v-.1c0-.8 2 .2 2-2.4v-12.5c0-1.8-2.1-1.4-2.1-1.8 0-.1 0-.3.2-.3.1-.2.2-.2.2-.2zm33.8 10.6v-8c0-2.6-2.3-1.5-2.3-2.4 0-.2.2-.2.3-.2.9 0 1.8.2 2.9.2.5 0 .9-.2 1.4-.2.2 0 .3.1.3.3 0 .8-1.4.2-1.4 2.4v7.5c0 1.2.3 7.2-6.9 7.2-6.5 0-7.7-3.6-7.7-7.4v-8.3c0-1.4-2-.9-2-1.7.2-.1.4-.2.6-.2.6 0 1.2.2 2 .2s1.7-.2 2.3-.2c.2 0 .8-.2.8.2 0 .8-1.7 0-1.7 1.8v8.8c0 3.9 2.6 5.7 5.9 5.7 4.5.2 5.5-2.8 5.5-5.7zm18.3 6.7c-1.7-.1-3.1-1.2-3.8-2.7l-2.7-4.4c-.9-1.4-.6-1.4-3.3-1.4-.8 0-.6.5-.6.8v5.1c0 2.1 2.6 1.4 2.6 2.3 0 .3-.3.2-.5.2-1-.1-1.9-.2-2.9-.2-.9 0-1.8.2-2.9.2-.2 0-.3-.1-.3-.3 0-.6 1.8-.3 1.8-2.1v-12.5c0-2.4-2.1-1.4-2.1-2.3 0-.2.2-.3.4-.3.5.1 1.1.1 1.7.2 1.4 0 2.9-.2 4.1-.2.5 0 5.9-.6 5.9 4.2-.1 1.9-1.3 3.6-3.2 4.2l4.1 6.2c1.8 2.7 3 1.8 3 2.4.3.6-1 .6-1.3.6zm-4.2-12.6c0-3-2.3-3.9-4.8-3.9-.9 0-1.4-.2-1.4.9v6.2c0 .5 1.5.3 2.7.3 1.7.2 3.3-1 3.5-2.7v-.8zm21.5-3.4c.3 0 .3.3.3 2 0 1.4.3 2.1-.2 2.1s-.5-.6-.6-.8c-1.5-2.7-3.3-4.2-6.5-4.2-4.8 0-7.1 3.2-7.1 7.7s2.4 8.6 7.1 8.6c2.7.1 5.2-1.2 6.6-3.5l.3-.3c.2 0 .3.1.3.3l-.6 2.4c0 .2-1.8 2-7.2 2-4.6.3-8.5-3.2-8.7-7.8v-.8c-.2-4.9 3.7-9 8.6-9.2h.3c4.5 0 5.9 2 6.6 2 .5-.1.7-.4.8-.5zm-80-45.1c-.1.6-.4 1.2-.9 1.7-.5 0-.8-1.2-1.1-1.8l-6.9-16.2c-.8-1.7-2.1-1.2-2.1-1.8 0-.3.2-.3.5-.3.8 0 1.7.2 2.6.2.9 0 1.8-.2 2.1-.2.2 0 .4.1.5.3 0 .3-1.2.3-1.2 1.4 0 .4.1.7.3 1.1l4.8 11.5c.6 1.4.8 2 1.1 2 .3-.2.5-.4.6-.8l4.8-11.9c.3-.6.4-1.3.3-2 0-1.2-1.8-.8-1.8-1.4 0-.3.2-.3.5-.3.6 0 1.2.2 1.8.2 1.4 0 1.8-.2 2.3-.2.2 0 .4.1.4.3 0 .6-.8-.2-1.7 1.8l-6.9 16.4zM54.8 159c-2.1 0-4.2-.2-6.3-.2-1.1 0-2.3.2-3.3.2-.2 0-.4-.1-.4-.3.3-.4.7-.6 1.2-.8.8-.3.8-1.2.8-2.4V143c0-1.2 0-2.6-1.5-2.9-.4 0-.7-.1-.9-.5 0-.2.2-.3.9-.3 5.3 0 6.6.2 7.8.2.6 0 3-.2 3.9-.2.3 0 .3.3.3.6 0 3-.3 3.3-.6 3.3-.8 0-.2-1.4-.8-2-.6-.9-3.5-.8-4.7-.8-2.7 0-2.6-.2-2.6 1.8v5.1c0 .9-.2.9.9.9h3c2.9 0 2.3-2.3 2.9-2.3.3 0 .3.3.3.6 0 .9-.2 1.8-.2 2.7 0 .9.2 1.5.2 2.3 0 .1 0 .3-.2.3h-.1c-.9 0 .2-2.4-2.3-2.4H49c-.6 0-.5.5-.5.9v5c0 1.7-.3 2.4 2 2.4 6.5 0 7.4-2.9 7.7-2.9.3 0 .2.3.2.3-.2 1-.6 2-1.4 2.7-.4 1.4-1 1.3-2.2 1.2zm22.8 33.8c-.5 1.1-.8 2.4-1.4 2.4s-1.2-1.8-1.5-2.6l-10-23.5c-.9-2.4-3.2-1.7-3.2-2.6 0-.3.3-.6.6-.6 1.2 0 2.4.2 3.8.2 1.1 0 2.7-.2 3.2-.2.2 0 .5.1.6.3.2.6-1.7.6-1.7 2.1 0 .6.1 1.1.3 1.7l7.1 16.6c.9 2.3 1.2 3 1.7 3 .5-.2.8-.7.8-1.2l6.9-17.2c.4-.8.6-1.8.6-2.7 0-1.8-2.7-1.2-2.7-2 0-.3.2-.6.5-.6h.1c.9 0 1.8.2 2.7.2 2 0 2.4-.2 3-.2.3-.1.7.1.7.4v.2c0 .9-1.2-.2-2.3 2.6l-9.8 23.7zm-50.3-35.6l-.9-4.8c-.2-.8 0-1.2.3-1.2.6 0 .6.5.8 1.2 1.1 3.4 4.2 5.6 7.7 5.6s6.9-2 6.9-5.9c0-7.1-14.9-3.2-14.9-12.8 0-4.7 3.9-6.9 8.2-6.9 2.1-.1 4.3.4 6.2 1.4.3 0 .5-.5.8-.5.3 0 .5.2.5.6l.6 5c.1.2.1.4-.1.5-.1 0-.1.1-.2.1-.5-.2-.8-.7-.8-1.2-1-3-3.9-5-7.1-4.8-2.9 0-6 1.4-6 4.8 0 6.9 14.9 2.9 14.9 13 0 3.2-2.3 7.7-10.6 7.7-2.8.4-6.1-1-6.3-1.8zm42.4 61.9c-4.5.2-8.4-3.3-8.6-7.9v-.7c-.2-4.8 3.5-9 8.3-9.2h.4c4.5 0 5.9 2 6.6 2l.6-.3c.3 0 .3.3.3 2 0 1.4.3 2.1-.2 2.1-.3-.2-.5-.4-.6-.8-1.7-2.7-3.3-4.2-6.5-4.2-4.8 0-7.1 3.2-7.1 7.7s2.4 8.6 7.1 8.6c3.9 0 6.3-2.4 6.6-3.5 0-.2.1-.3.3-.3.2 0 .2.2.2.3l-.6 2.4c.5-.1-1.2 1.8-6.8 1.8zm-27.4-24.6c-.3 0-2.4.2-3.8.2-2.3 0-3.5-.2-5.3-.2-1.5 0-2.9.2-4.4.2-.3 0-1.2 0-1.2-.5 0-1.4 3.2-.8 3.2-2.9-.3-1.7-.9-3.4-1.7-5l-1.8-4.4c-.6-1.2-.8-2-2.3-2H13.3c-1-.2-2.1.3-2.6 1.2l-3.3 7.5c-.3.6-.4 1.2-.5 1.8 0 3.8 3.8 2.1 3.8 3.5 0 .9-.8.8-1.4.8-1.5 0-3-.2-4.5-.2s-2.9.1-4.4.1c-.3 0-.5-.3-.5-.6 0-1.1 2.4-.2 3.9-3.3l12.8-27.2c3.2-6.8 3.3-7.7 4.1-7.7s.9 1.7 1.2 2l11.2 27.6c.7 2.1 1.6 4.1 2.7 6 .5 1 1.6 1.6 2.7 1.7.9 0 1.7-1.1 1.7-2.9v-20.1c0-4.1-3.3-2.9-3.3-3.9 0-.3.3-.3.6-.3 1.2 0 2.4.2 3.6.2 2.7 0 5.3-.2 8.8-.2 7.1 0 14.2 5.4 14.2 12.8 0 9.2-4.4 15.7-15.5 15.7-2.3.1-4.2.1-6.3.1zm1-24.9v19.1c0 .6-.2 2.6.3 2.9 1.4 1.4 4.4 1.8 6.2 1.8 5.7 0 11.2-3 11.2-12.4 0-9.1-6-14-13.6-14-3.9.1-4.1.6-4.1 2.6zm-24.1-6l-6 13c-.3.8 0 .9.8.9h10.6c1.2 0 1.2-.3.9-1.1l-5.3-12.8c-.4-.8-.6-.8-1 0zm203.1 3.6l.2 3.3c0 .3.2.9-.5.9-1.5 0 .8-3-3.5-3h-5.9c-1.7 0-1.7.2-1.7 2v20.4c0 3.5 3.3 2.1 3.3 3.3 0 .2.2.5-.3.5-.9 0-2.1-.2-3.3-.2-4.5 0-5.3.2-5.6.2-.3 0-.5-.2-.5-.6 0-.9 3.2-.6 3.2-3v-21c0-.3.2-1.8-.6-1.8H199c-2.4 0-2.4.9-2.4 2.3 0 .5.3 2.3-.5 2.3-.5-.3-.8-.7-.9-1.2-1.2-3.5-4.1-4.7-7.5-4.7-3.5 0-6.6 1.5-6.6 5.3 0 7.5 16.5 3.2 16.5 14.3 0 3.5-2.4 8.6-11.5 8.6-3 0-6.6-1.5-6.9-2.3l-.9-5.1c-.2-.8 0-1.2.5-1.2s.6.5.8 1.4c1.1 3.7 4.6 6.2 8.5 6 3.9 0 7.5-2.1 7.5-6.5 0-7.7-16.5-3.5-16.5-13.9 0-5.1 4.4-7.5 9.1-7.5 2.3-.1 4.7.4 6.8 1.4.6 0 .8-1.1 1.5-1.1 3.2 0 7.7.2 12.8.2 7.2 0 11-.2 11.8-.2 1.1-.3 1.2 0 1.2.9zM104.2 104.9v-5.3h7.4v-.5c0-5.3-2.4-9.1-19.2-6.2l-27.5 4.8-15.7 22 38-6.8c11.3-2 21.4-2.4 24.5 6.6v-14.8c0 .2-7.5.2-7.5.2zM116.8 119.7c0-7.1 4.2-12.1 12.8-20.7l6-6 27.8 4.8 15.8 21.9-36.5-6.4c-12.1-2.2-22.5-3-25.9 6.4zM118.3 99.6c2.7-5.9 8.6-11.3 11.9-14.6l2.4-2.4c10.3-10.3 12.2-14.5 12.8-21.4.4.8.7 1.7.8 2.6.5 3.8.1 7.7-1.2 11.3-2.1 6.2-7.1 11.2-13.6 17.7l-7.1 6.9h-6zM124.2 14s.2-.2.2 0v8.2c0 7.4-9.5 15.8-13.3 19.6L97.2 55.7c-4.8 4.8-14.3 14.2-10.4 23.4.2.3.3.6-.3.2-1.1-.8-2.6-3.3-3-8-.8-8.3 5-15.8 11.9-22.8l13.3-13.3c13.6-13.3 14.9-15.6 15.5-21.2z"/><path class="st0" d="M111.3 55.7c3.8-3.8 13.3-12.2 13.3-19.6v-8.2c0-.2-.2 0-.2 0-.6 5.4-2 7.8-15.4 21.3L96.8 61.6c-4.5 4.5-8.6 9.2-8.3 16.8.2 4.7 2.4 8.5 5.9 9.4 1.5.3 1.4.2 1.1 0-5-2.3-4.5-11.3 3.5-19.3l12.3-12.8zM95.9 43.4C85.6 53.7 83.6 57.9 83 64.9c-.4-.8-.7-1.7-.8-2.6-.5-3.8-.1-7.7 1.2-11.3 2.1-6.2 7.1-11.2 13.6-17.7l12-11.9C122.4 8 123.8 5.6 124.4.1c0 0 .2-.2.2 0v8.2c0 7.4-9.5 15.8-13.3 19.6L95.9 43.4zM117 113h-.2v-8.2h3.3c-1.6 2.5-2.7 5.3-3.1 8.2zM117 99.6h-.2v-8.3c0-6.2 6-12.8 12.1-18.9l3.9-3.9c3.2-3.2 12.8-12.7 8.8-21.7-.2-.3-.3-.6.3-.2 1.1.8 2.6 3.3 3 8 .8 8.3-5 15.8-11.9 22.8l-3.6 3.6c-8.8 8.8-11.8 12.7-12.4 18.6z"/><path class="st0" d="M117 85.4h-.2V77c0-5.9 5.9-12.2 8.8-15.1l4.4-4.4c8-8 8.3-16.9 3.5-19.3-.3-.2-.5-.3 1.1 0 3.5.9 5.9 4.7 5.9 9.4.2 7.5-3.8 12.2-8.3 16.6l-3.6 3.6c-7.7 7.5-10.9 11.9-11.6 17.6zM179.8 104c1.8 0 3.2 1.4 3.2 3.2 0 1.8-1.4 3.2-3.2 3.2-.9 0-1.8-.4-2.4-1.1-.5-.6-.7-1.3-.8-2 0-.8.3-1.5.8-2.1.5-.9 1.4-1.3 2.4-1.2zm0 .3c-.7 0-1.4.3-2 .8-.5.5-.8 1.2-.8 2 0 .7.3 1.4.8 2 .5.5 1.2.8 2 .8.7 0 1.4-.3 2-.8.5-.5.8-1.2.8-2 .1-1.4-1-2.7-2.4-2.8-.2-.1-.3-.1-.4 0zm.3 2.8l.8 1.1.2.2c.1.2.3.4.6.5h.2c.1 0 .2.1.2.2 0 .2-.2.2-.5.2-.4 0-.7-.3-.9-.6l-.6-1.1-.2-.2h-.3v.9c0 .2 0 .3.2.5.1.1.2.1.3.2.2 0 .2 0 .2.2 0 .1-.1.2-.2.2h-1.2c-.2 0-.2 0-.2-.2l.2-.2c.2 0 .2-.2.3-.2s0-.3 0-.6v-2.1c0-.2-.1-.4-.3-.4h-.2c-.2 0-.2 0-.2-.2 0-.1.1-.2.2-.2h1.2c.9 0 1.2.3 1.2.9-.3.3-.6.7-1 .9zm-.8-.1h.3c.3.1.7-.1.7-.4v-.2c0-.2-.1-.5-.3-.6-.2-.2-.4-.3-.6-.3-.2 0-.3 0-.3.2v.1l.2 1.2c-.1-.2-.1-.1 0 0zM227.6 160.9c1.8 0 3.2 1.4 3.2 3.2 0 1.8-1.4 3.2-3.2 3.2-.9 0-1.8-.4-2.4-1.1-.5-.5-.7-1.2-.8-2 0-.8.3-1.5.8-2.1.5-.8 1.5-1.3 2.4-1.2zm0 .3c-.7 0-1.4.3-2 .8-.5.5-.8 1.2-.8 2 0 .7.3 1.4.8 2 .5.5 1.2.8 2 .8.7 0 1.4-.3 2-.8.5-.5.8-1.2.8-2 0-.7-.3-1.4-.8-2-.6-.5-1.2-.8-2-.8zm.3 2.7l.8 1.1.2.2c.1.2.3.4.6.5h.2c.1 0 .2.1.2.2 0 .2-.2.2-.5.2-.4 0-.7-.3-.9-.6l-.6-1.1-.2-.2h-.3v.9c0 .2 0 .3.2.5.1.1.2.1.3.2.2 0 .2 0 .2.2 0 .1-.1.2-.2.2h-1.2c-.2 0-.2 0-.2-.2l.2-.2c.2 0 .2-.2.3-.2v-2.7c0-.2-.1-.4-.3-.4h-.2c-.2 0-.2 0-.2-.2 0-.1.1-.2.2-.2h1.2c.9 0 1.2.3 1.2.9-.2.3-.5.7-1 .9zm-.7 0h.3c.3.1.7-.1.7-.4v-.2c0-.2-.1-.5-.3-.6-.2-.2-.4-.3-.6-.3-.2 0-.3 0-.3.2v.2l.2 1.1z"/></svg>