<svg xmlns="http://www.w3.org/2000/svg" viewBox="0 0 324.2 79.84"><title>BW_A</title><path d="M36.5 69.54V66h5v-.3c0-3.5-1.6-6.1-12.7-4.1l-18.3 3.3L0 79.54 25.3 75c7.6-1.3 14.2-1.6 16.3 4.4v-9.9h-5.1zM44.9 79.44c0-4.8 2.8-8 8.6-13.8l4-4 18.5 3.3 10.5 14.6-24.3-4.2c-8.1-1.7-15.1-2.2-17.3 4.1zM46 66c1.8-3.9 5.7-7.5 8-9.7l1.6-1.6c6.8-6.8 8.1-9.6 8.5-14.3a4.69 4.69 0 0 1 .5 1.7 14.79 14.79 0 0 1-.8 7.5c-1.4 4.1-4.7 7.4-9 11.7L50.1 66H46zM49.9 9.14s.1-.1.1 0v5.4c0 4.9-6.3 10.6-8.8 13l-9.2 9.2c-3.2 3.2-9.6 9.5-6.9 15.6.1.2.2.4-.2.1-.7-.5-1.7-2.2-2-5.3-.5-5.5 3.3-10.5 7.9-15.2l8.8-8.8c9-8.8 9.9-10.4 10.3-14z" fill="#fff"/><path d="M41.2 36.84c2.5-2.5 8.8-8.1 8.8-13v-5.4c0-.1-.1 0-.1 0-.4 3.7-1.3 5.2-10.2 14.1l-8.2 8.2c-3 3-5.7 6.1-5.6 11.1.1 3.1 1.6 5.6 4 6.2 1 .2.9.1.7 0-3.3-1.6-3.1-7.5 2.3-12.8zM31 28.64c-6.8 6.8-8.1 9.6-8.5 14.3a4.69 4.69 0 0 1-.5-1.7 14.79 14.79 0 0 1 .8-7.5c1.4-4.1 4.7-7.4 9-11.7l7.9-7.9C48.6 5.24 49.5 3.64 49.9 0c0 0 .1-.1.1 0v5.4c0 4.9-6.3 10.6-8.8 13zM45.1 74.94H45v-5.4h2.3a10.37 10.37 0 0 0-2.2 5.4zM45.1 66H45v-5.5c0-4.1 4-8.6 8-12.5l2.6-2.6c2.1-2.1 8.5-8.4 5.8-14.5-.1-.2-.2-.4.2-.1.7.5 1.7 2.2 2 5.3.5 5.5-3.3 10.5-7.9 15.2l-2.4 2.4c-5.9 5.74-7.8 8.3-8.2 12.3z" fill="#fff"/><path d="M45.1 56.54H45v-5.6c0-3.9 3.9-8.2 5.8-10.1l2.9-2.9c5.3-5.3 5.6-11.3 2.3-12.8-.2-.1-.3-.2.7 0 2.3.6 3.9 3.2 4 6.2.1 5-2.6 8.1-5.5 11.1l-2.4 2.4c-5.1 5-7.3 7.9-7.7 11.7zM246.7 65.94c0-1.6-1.9-1.1-1.9-1.6a.24.24 0 0 1 .3-.2c.8 0 1.6.1 2.4.1s1.3-.1 2-.1c.4 0 .4.1.4.2 0 .4-1.6 0-1.6 1.6v4.7c0 .3 0 .4.3.4h7.9c.2 0 .2-.5.2-.6V66c0-1.5-1.6-1.1-1.6-1.6 0-.1 0-.2.4-.2.7 0 1.8.1 2.3.1.8 0 1.1-.1 1.6-.1s.6.2.6.3c0 .4-1.5 0-1.5 1.5v11.5c0 1.6 2 1.2 2 1.7a.34.34 0 0 1-.2.3c-.6 0-1.3-.1-2-.1-1.4 0-2 .1-2.4.1-.2 0-.5.1-.5-.3s1.5-.2 1.5-1.6v-5.2c0-.3.1-.5-.2-.5h-8c-.3 0-.3.1-.3.4v5.4c0 1.5 2.1 1 2.1 1.7a.34.34 0 0 1-.3.2c-.3 0-1.9-.1-3-.1a11.44 11.44 0 0 0-1.9.1c-.2 0-.2-.1-.2-.3 0-.6 1.7.1 1.7-2.1V65.94h-.1zM264.8 73.64c0 3.5 2.3 5.1 5.2 5.1 4.1 0 5-2.7 5-5.2v-7c0-2.2-2-1.3-2-2.1a.38.38 0 0 1 .2-.2c.8 0 1.7.1 2.5.1.4 0 .8-.1 1.2-.1a.34.34 0 0 1 .3.2c0 .6-1.3.1-1.3 2.1v6.7c0 1.1.3 6.4-6.1 6.4-5.7 0-6.8-3.2-6.8-6.5v-7.3c0-1.3-1.8-.8-1.8-1.5 0-.2.4-.2.5-.2.6 0 1.1.1 1.7.1s1.4-.1 2.1-.1a.84.84 0 0 1 .7.2c0 .6-1.5 0-1.5 1.6v7.7h.1zM290 77c1.6 2.4 2.6 1.6 2.6 2.1 0 .3-1.2.3-1.4.3-1.6 0-2.4-1.1-3.3-2.3l-2.4-3.8c-.8-1.2-.5-1.1-2.9-1.1-.7 0-.6.4-.6.6v4.6c0 1.9 2.3 1.2 2.3 1.9 0 .2-.2.2-.4.2s-.7-.1-2.5-.1c-.8 0-1.6.1-2.5.1a.22.22 0 0 1-.2-.2c0-.5 1.6-.2 1.6-1.9v-11c0-2.1-1.9-1.2-1.9-1.9a.45.45 0 0 1 .4-.3 11.35 11.35 0 0 0 1.4.1c1.3 0 2.5-.1 3.6-.1.3 0 5.1-.4 5.1 3.8a4.36 4.36 0 0 1-2.7 3.8zm-7.9-6c0 .4 1.3.3 2.4.3a2.85 2.85 0 0 0 3-3.1c0-2.6-2-3.5-4.1-3.5-.8 0-1.2 0-1.2.8V71h-.1zM300.2 63.84c4.1 0 5.2 1.7 5.8 1.7.2 0 .3-.2.5-.2s.2.3.3 1.8c0 1.1.2 1.9-.1 1.9a1.16 1.16 0 0 1-.5-.7c-1.3-2.3-2.9-3.7-5.7-3.7-4.2 0-6.3 2.8-6.3 6.9 0 3.8 2.2 7.5 6.3 7.5a6.61 6.61 0 0 0 5.9-3.2.32.32 0 0 1 .3-.3.22.22 0 0 1 .2.2l-.5 2.2c0 .1-1.6 1.7-6.4 1.7a7.27 7.27 0 0 1-7.6-7.5c0-4.6 3.3-8.3 7.8-8.3zM310.4 65.94c0-1.6-1.9-1.1-1.9-1.6a.24.24 0 0 1 .3-.2c.8 0 1.6.1 2.4.1s1.3-.1 2-.1c.4 0 .4.1.4.2 0 .4-1.6 0-1.6 1.6v4.7c0 .3 0 .4.3.4h7.9c.2 0 .2-.5.2-.6V66c0-1.5-1.6-1.1-1.6-1.6 0-.1 0-.2.4-.2.7 0 1.8.1 2.3.1.8 0 1.1-.1 1.6-.1s.6.2.6.3c0 .4-1.5 0-1.5 1.5v11.5c0 1.6 2 1.2 2 1.7a.34.34 0 0 1-.2.3c-.6 0-1.3-.1-2-.1-1.4 0-2 .1-2.4.1-.2 0-.5.1-.5-.3s1.5-.2 1.5-1.6v-5.2c0-.3.1-.5-.2-.5h-8c-.3 0-.3.1-.3.4v5.4c0 1.5 2.1 1 2.1 1.7a.34.34 0 0 1-.3.2c-.3 0-1.9-.1-3-.1a11.44 11.44 0 0 0-1.9.1c-.2 0-.2-.1-.2-.3 0-.6 1.7.1 1.7-2.1V65.94h-.1zM206.6 39.64c.7 0 1.3.1 1.9.1 1.5 0 2.8-.1 4.7-.1 3.9 0 7.7 2.9 7.7 6.9 0 5-2.4 8.5-8.5 8.5-1.1 0-2.2-.1-3.3-.1l-2.4.1a.22.22 0 0 1-.2-.2c0-.5 1.5.1 1.5-2v-10.9c0-2.2-1.7-1.5-1.7-2.1a.24.24 0 0 1 .3-.2zm6.7 14.8c3.1 0 6-1.7 6-6.7s-3.2-7.6-7.4-7.6c-2.1 0-2.1.3-2.1 1.4v10.4a3.55 3.55 0 0 0 .1 1.5 5.68 5.68 0 0 0 3.4 1zM225 48.94a.88.88 0 0 0-1 .5l-1.4 3.1a1.55 1.55 0 0 0-.2.8c0 1.5 1.6.8 1.6 1.4 0 .4-.3.3-.6.3-.6 0-1.2-.1-1.8-.1s-1.2.1-1.7.1a.22.22 0 0 1-.2-.2c0-.5 1-.1 1.6-1.4l5.2-11.1c1.2-2.7 1.3-3.1 1.7-3.1a1.51 1.51 0 0 1 .4.8l4.6 11.2a26 26 0 0 0 1 2.5c.7 1 1.9.5 1.9 1 0 .2-.1.2-.3.2-.9 0-1.8-.1-2.7-.1-.6 0-1.2.1-1.8.1-.1 0-.5 0-.5-.2 0-.6 1.3-.3 1.3-1.1a9.65 9.65 0 0 0-.6-2.1l-.7-1.8a.91.91 0 0 0-1-.8H225zm4.5-.9c.5 0 .5-.1.3-.4l-2.2-5.3q-.15-.45-.3 0l-2.4 5.3c-.1.3 0 .3.3.3h4.3V48zM233.9 39.64c.6 0 1 .1 2.4.1.8 0 1.3-.1 1.5-.1s.4 0 .4.2-1 .3-1 1a3 3 0 0 0 .3.9l2.6 4.2a.6.6 0 0 0 .5.4.69.69 0 0 0 .4-.5l2.2-3.6a2.7 2.7 0 0 0 .5-1.2c0-1.1-1.7-.6-1.7-1.2 0-.3.2-.3.5-.3.5 0 1 .1 1.6.1s1.2-.1 1.9-.1a.22.22 0 0 1 .2.2c0 .3-.3.3-.5.4a3.49 3.49 0 0 0-1.2 1.5l-3.1 4.8a1.87 1.87 0 0 0-.5 1v5.3c0 1.9 1.7 1.2 1.7 1.9 0 .2-.1.2-.5.2s-1.6-.1-2.4-.1c-1 0-1.8.1-2 .1a.26.26 0 0 1-.3-.3c0-.6 1.7 0 1.7-1.6v-5.3a2.22 2.22 0 0 0-.5-1.1l-3.7-5.8c-.6-.9-1.6-.6-1.6-1 .3 0 .3-.1.6-.1zM189 64c.8 0 1.6.1 2.4.1s1.4-.1 2-.1c.3 0 .4 0 .4.2 0 .5-1.6 0-1.6 1.7v11.6c0 1.5 1.9 1 1.9 1.7 0 .1 0 .2-.4.2h-4.5c-.4 0-.4-.1-.4-.3 0-.6 1.7.1 1.7-2V66c0-1.6-1.8-1.1-1.8-1.6.1-.26.1-.4.3-.4zM149.1 46.64c2.3 0 1.7-1.7 2.2-1.7.2 0 .2.2.2.4v3.8a.25.25 0 0 1-.2.3c-.7 0 .1-1.9-1.7-1.9h-3.3c-.5 0-.4.3-.4.7v4c0 1.3-.1 1.9 1.7 1.9 5.1 0 5.8-2.3 6.1-2.3.1 0 .1.2.1.3a3.6 3.6 0 0 1-1.1 2.1 2.21 2.21 0 0 1-2.1.8c-1.7 0-3.3-.1-5-.1-.9 0-1.8.1-2.6.1a.25.25 0 0 1-.3-.2c.1-.3.3-.2 1-.6s.6-.9.6-1.9v-9.9c0-1 0-2-1.2-2.2a.78.78 0 0 1-.7-.3c0-.1.1-.2.8-.2 4.2 0 5.3.1 6.2.1.4 0 2.4-.1 3.1-.1.2 0 .2.2.2.4 0 2.4-.3 2.6-.4 2.6-.6 0-.1-1-.6-1.5-.6-.8-2.8-.6-3.7-.6-2.1 0-2.1-.1-2.1 1.4v4c0 .8 0 .8.8.8h2.4v-.2zM153.5 39.64c.3 0 .7.1 1 .1s.6-.1 1-.1a1 1 0 0 1 .6.5l10.4 11.6a.53.53 0 0 0 .3.2c.1 0 .1-.1.1-.2v-9.2c0-2.8-2.4-2-2.4-2.7a.25.25 0 0 1 .3-.2c.6 0 1.2.1 1.9.1s1.7-.1 2.2-.1a.35.35 0 0 1 .2.1c0 .6-1.3.2-1.3 1.8v12.6a1.31 1.31 0 0 1-.1.9 1.11 1.11 0 0 1-.8-.6l-9.4-10.6a2.18 2.18 0 0 0-.5-.4c-.1 0-.1.1-.1.6v8.9c0 2 1.9 1.2 1.9 1.8a.24.24 0 0 1-.2.3c-.6 0-1.1-.1-2.2-.1-.8 0-1.9.1-2 .1-.3 0-.3-.1-.3-.2 0-.8 1.9.2 1.9-2.9v-8c0-4.5-2.6-3.3-2.6-4-.2-.3 0-.3.1-.3zM171.4 40.74c-1.4 0-1.4.3-1.8 1.5a.62.62 0 0 1-.3.5.25.25 0 0 1-.2-.3l.2-2.1c.1-.3 0-.8.4-.8 1.7 0 3.4.1 6.2.1 4 0 6-.1 6.4-.1s.6.1.6.6l.1 1.7c0 .2 0 .5-.3.5-.8 0 .4-1.7-1.8-1.7h-3.1c-1 0-.9-.1-.9 1v11.2c0 1.8 1.8 1.1 1.8 1.7a.24.24 0 0 1-.2.3c-.6 0-1.2-.1-1.8-.1a28.63 28.63 0 0 0-3 .1.27.27 0 0 1-.3-.3c0-.6 1.7-.3 1.7-1.6v-11.4c0-.1.1-1-.2-1h-3.5v.2z" fill="#fff"/><path d="M182.9 39.64c.8 0 1.6.1 2.4.1s1.4-.1 2-.1c.4 0 .4.1.4.2 0 .4-1.5 0-1.5 1.7v4.7c0 .3 0 .3.3.3h8c.3 0 .2-.6.2-.6v-4.4c0-1.5-1.7-1.2-1.7-1.7 0-.1.1-.2.4-.2.7 0 1.8.1 2.2.1.8 0 1.2-.1 1.6-.1.6 0 .6.2.6.3 0 .3-1.5 0-1.5 1.5v11.5c0 1.6 1.9 1.2 1.9 1.7a.34.34 0 0 1-.2.3c-.6 0-1.2-.1-2.1-.1-1.4 0-2 .1-2.4.1-.1 0-.5.1-.5-.3 0-.6 1.5-.2 1.5-1.6v-5.2c0-.3.1-.6-.2-.6h-8c-.2 0-.2.1-.2.3v5.4c0 1.5 2 1 2 1.7 0 .1-.1.1-.3.1s-1.9-.1-3-.1a10 10 0 0 0-1.9.1.27.27 0 0 1-.3-.3c0-.6 1.7.1 1.7-2v-11.2c0-1.6-1.9-1.2-1.9-1.7a1.09 1.09 0 0 0 .5.1zM205.6 47.24c0 1 .1 1-.8 1.3L200.4 50a9.25 9.25 0 0 1-1 .3c-.3 0-.3-.4-.3-.6 0-1.1-.1-1.1.8-1.4l4.4-1.5a5.39 5.39 0 0 1 1-.3c.4.04.3.5.3.74zM154.7 71.14c2.3 0 1.7-1.8 2.2-1.8a.39.39 0 0 1 .2.4v3.9a.25.25 0 0 1-.2.3c-.7 0 0-1.9-1.8-1.9h-3.2c-.5 0-.4.4-.4.7v4c0 1.3-.2 1.8 1.6 1.8 5 0 5.8-2.2 6.1-2.2.1 0 .1.2.1.2a3.77 3.77 0 0 1-1 2.1 2.14 2.14 0 0 1-2.1.7c-1.7 0-3.3-.1-5 0h-2.7c-.2 0-.3 0-.3-.2s.3-.2.9-.6.6-.9.6-1.9v-9.9c0-1 0-2-1.1-2.2a.67.67 0 0 1-.7-.4c0-.1.1-.2.8-.2 4.1 0 5.2.1 6.2.1.4 0 2.4-.1 3.1-.1.2 0 .2.2.2.5 0 2.4-.3 2.6-.4 2.6-.5 0-.2-1-.5-1.5-.6-.8-2.8-.6-3.7-.6-2.1 0-2-.1-2 1.4v4c0 .8 0 .8.8.8h2.3zM159.4 64c.4 0 .7.1 1 .1s.7-.1 1-.1a1.33 1.33 0 0 1 .6.5l10.4 11.6.2.2a.35.35 0 0 0 .1-.2V67c0-2.8-2.4-2-2.4-2.7a.22.22 0 0 1 .2-.2c.6 0 1.3.1 1.9.1.8 0 1.7-.1 2.2-.1a.16.16 0 0 1 .2.2c0 .6-1.3.2-1.3 1.8v12.5c0 .7 0 .9-.2.9a1.32 1.32 0 0 1-.8-.6l-9.3-10.5a1.08 1.08 0 0 0-.5-.4c-.1 0-.1 0-.1.5v8.9c0 1.9 1.9 1.2 1.9 1.8a.24.24 0 0 1-.2.3h-4.2c-.3 0-.3-.1-.3-.2 0-.8 1.9.2 1.9-2.8v-8c0-4.5-2.6-3.3-2.6-4.1a.45.45 0 0 1 .3-.4zM177.2 65.24c-1.4 0-1.4.3-1.8 1.5-.1.2-.1.5-.4.5a.34.34 0 0 1-.2-.3l.2-2.1c0-.3 0-.9.4-.9 1.7 0 3.4.1 6.2.1 3.9 0 5.9-.1 6.3-.1a.56.56 0 0 1 .7.6l.1 1.8c0 .2 0 .5-.2.5-.8 0 .4-1.7-1.8-1.7h-3.1c-.8 0-.9 0-.9 1v11.1c0 1.8 1.8 1.1 1.8 1.8a.2.2 0 0 1-.2.2h-4.8c-.2 0-.2 0-.2-.3 0-.5 1.7-.3 1.7-1.6V66c0-.1 0-1-.3-1h-3.5v.2zM135.8 54.14a1.63 1.63 0 0 1-.7 1.2c-.3 0-.6-.9-.8-1.4l-5.4-12.7c-.6-1.3-1.7-.9-1.7-1.4a.27.27 0 0 1 .3-.3c.6 0 1.3.1 2 .1s1.4-.1 1.7-.1a.34.34 0 0 1 .3.2c0 .3-.9.3-.9 1.1a1.88 1.88 0 0 0 .2.8l3.8 9c.5 1.1.6 1.6.8 1.6a.72.72 0 0 0 .4-.6l3.8-9.4a5.67 5.67 0 0 0 .3-1.5c0-1-1.4-.6-1.4-1a.27.27 0 0 1 .3-.3c.5 0 1 .1 1.4.1 1.1 0 1.4-.1 1.7-.1a.27.27 0 0 1 .3.3c0 .5-.6-.1-1.2 1.4zM125 55c-1.7 0-3.3-.1-5-.1-.8 0-1.8.1-2.6.1a.25.25 0 0 1-.3-.2c.1-.3.3-.2 1-.6s.6-.9.6-1.9v-9.9c0-1 0-2-1.2-2.2a.78.78 0 0 1-.7-.3c0-.1.1-.2.8-.2 4.2 0 5.3.1 6.2.1.5 0 2.4-.1 3.1-.1.2 0 .2.2.2.4 0 2.4-.3 2.6-.4 2.6-.6 0-.1-1-.6-1.5-.5-.8-2.8-.6-3.7-.6-2.1 0-2-.1-2 1.4v4c0 .8-.1.8.8.8h2.4c2.3 0 1.7-1.7 2.2-1.7a.35.35 0 0 1 .3.4c0 .8-.1 1.5-.1 2.1s.1 1.2.1 1.7a.27.27 0 0 1-.3.3c-.7 0 .1-1.9-1.7-1.9h-3.3c-.4 0-.3.3-.3.7v4c0 1.3-.2 1.9 1.6 1.9 5.1 0 5.8-2.3 6.1-2.3.1 0 .1.2.1.3a4.12 4.12 0 0 1-1 2.1 3.22 3.22 0 0 1-2.3.6z" fill="#fff"/><path d="M141.4 78.54c-.2.6-.4 1.3-.7 1.3s-.6-.9-.8-1.4l-5.4-12.7c-.5-1.3-1.7-.9-1.7-1.4a.27.27 0 0 1 .3-.3c.7 0 1.3.1 2 .1s1.4-.1 1.7-.1a.34.34 0 0 1 .3.2c0 .3-.9.3-.9 1.1a2.92 2.92 0 0 0 .2.9l3.8 8.9c.5 1.2.6 1.7.9 1.7s.3-.3.4-.6l3.7-9.3a3.34 3.34 0 0 0 .3-1.5c0-1-1.4-.6-1.4-1.1a.27.27 0 0 1 .3-.3c.5 0 .9.1 1.5.1 1 0 1.3-.1 1.7-.1a.35.35 0 0 1 .4.3c0 .5-.6-.1-1.2 1.4zM103.4 53.64l-.7-3.7q-.15-.9.3-.9c.4 0 .4.3.6 1a6.23 6.23 0 0 0 6.1 4.4c2.8 0 5.5-1.5 5.5-4.6 0-5.6-11.8-2.5-11.8-10.1 0-3.7 3.1-5.5 6.5-5.5a11.36 11.36 0 0 1 4.9 1c.3 0 .3-.3.6-.3s.3.1.3.4l.4 4c.1.3 0 .5-.3.5a1 1 0 0 1-.6-.9 5.41 5.41 0 0 0-5.5-3.7c-2.3 0-4.7 1.1-4.7 3.7 0 5.5 11.8 2.3 11.8 10.3 0 2.5-1.7 6.1-8.3 6.1-2.3-.1-5-1.2-5.1-1.7zM122.5 79.34h-4.8c-.8 0-1.6.1-2.4.1-.1 0-.6 0-.6-.3 0-.7 1.7-.4 1.7-1.5a12.17 12.17 0 0 0-.9-2.7l-.9-2.4c-.3-.7-.4-1.1-1.2-1.1H107a1.28 1.28 0 0 0-1.4.6l-1.8 4a2.51 2.51 0 0 0-.2 1c0 2 2 1.1 2 1.9 0 .5-.4.4-.8.4-.8 0-1.6-.1-2.4-.1s-1.6.1-2.3.1a.25.25 0 0 1-.2-.3c0-.6 1.3-.1 2.1-1.8l6.9-14.6c1.7-3.6 1.8-4.1 2.2-4.1s.5.9.6 1.1l6 14.8a29.51 29.51 0 0 0 1.4 3.3 1.67 1.67 0 0 0 1.5.9c.5 0 .9-.6.9-1.5v-10.8c0-2.2-1.8-1.5-1.8-2.1a.25.25 0 0 1 .3-.24c.7 0 1.3.1 1.9.1 1.5 0 2.8-.1 4.7-.1 3.8 0 7.6 2.9 7.6 6.9 0 5-2.4 8.4-8.4 8.4-1.2.14-2.3.04-3.3.04zm.5-13.4v10.3a8.08 8.08 0 0 0 .1 1.6 5.68 5.68 0 0 0 3.4 1c3.1 0 6-1.7 6-6.7 0-4.8-3.2-7.5-7.3-7.6-2.1.1-2.2.4-2.2 1.4zm-13-3.7l-3.3 7c-.2.4 0 .5.4.5h5.7c.7 0 .6-.2.5-.6l-2.8-6.9c-.1-.4-.3-.4-.5 0zM219.2 64.74l.1 1.8c0 .2 0 .5-.2.5-.8 0 .4-1.7-1.8-1.7h-3.1c-.9 0-.9 0-.9 1v11.1c0 1.8 1.8 1.1 1.8 1.8a.2.2 0 0 1-.2.2h-4.8c-.2 0-.2 0-.2-.3 0-.5 1.7-.3 1.7-1.6v-11.3c0-.1 0-1-.3-1h-4.5c-1.3 0-1.3.5-1.3 1.2 0 .2.2 1.2-.2 1.2a1.28 1.28 0 0 1-.5-.7 4 4 0 0 0-4.1-2.5c-1.8 0-3.6.9-3.6 2.8 0 4.1 8.8 1.7 8.8 7.7 0 1.8-1.3 4.6-6.2 4.6-1.6 0-3.6-.8-3.7-1.2l-.5-2.8c-.1-.4 0-.7.2-.7s.3.3.4.7a4.61 4.61 0 0 0 4.5 3.3c2.1 0 4.1-1.1 4.1-3.5 0-4.2-8.8-1.8-8.8-7.5 0-2.7 2.3-4.1 4.8-4.1a7.33 7.33 0 0 1 3.6.8c.3 0 .4-.6.8-.6 1.7 0 4.1.1 6.9.1 3.9 0 5.9-.1 6.3-.1.8.06.9.3.9.8zM235.5 58.84c5.4 0 6.9 2.2 7.7 2.2a4.88 4.88 0 0 1 .7-.3c.3 0 .3.5.4 2.3.1 1.5.3 2.5-.2 2.5a2.18 2.18 0 0 1-.7-.9c-1.8-3.1-3.8-4.9-7.5-4.9-5.6 0-8.3 3.7-8.3 9.1 0 5 2.9 10 8.4 10 4.5 0 7.3-2.9 7.8-4.2a.54.54 0 0 1 .4-.4.45.45 0 0 1 .3.3l-.7 2.9c0 .1-2.1 2.3-8.5 2.3-5.9 0-10.1-4.1-10.1-10-.1-6.1 4.2-10.9 10.3-10.9zM221.3 60.94a1.9 1.9 0 0 1 1.3.5 1.66 1.66 0 0 1 .5 1.3 1.9 1.9 0 0 1-.5 1.3 1.66 1.66 0 0 1-1.3.5 1.62 1.62 0 0 1-1.4-.7 1.92 1.92 0 0 1-.4-1.2 1.59 1.59 0 0 1 .4-1.2 2 2 0 0 1 1.4-.5zm0 .2a1.85 1.85 0 0 0-1.2.5 1.66 1.66 0 0 0-.5 1.2 1.85 1.85 0 0 0 .5 1.2 1.66 1.66 0 0 0 1.2.5 1.85 1.85 0 0 0 1.2-.5 1.66 1.66 0 0 0 .5-1.2 1.85 1.85 0 0 0-.5-1.2 2.08 2.08 0 0 0-1.2-.5zm.2 1.7l.4.6.1.1a.42.42 0 0 0 .4.3c0 .1-.1.1-.2.1a.68.68 0 0 1-.5-.3l-.4-.6-.1-.1h-.2v.7a.35.35 0 0 0 .2.1c.1 0 .1 0 .1.1a.1.1 0 0 1-.1.1h-.7a.1.1 0 0 1-.1-.1l.1-.1c.1 0 .1-.1.2-.1V62a.22.22 0 0 0-.2-.2h-.1a.1.1 0 0 1 0-.2h.6c.5 0 .7.2.7.5.2.44.1.54-.2.74zm-.5-.1h.2a.33.33 0 0 0 .4-.4.53.53 0 0 0-.2-.3.48.48 0 0 0-.4-.1c-.1 0-.1 0-.1.1v.1l.1.6zM84.6 66.94a2.45 2.45 0 0 1 1.6.6 2.27 2.27 0 0 1 .6 1.6 2.45 2.45 0 0 1-.6 1.6 2.31 2.31 0 0 1-3.3-.2 1.87 1.87 0 0 1-.5-1.4 2.39 2.39 0 0 1 .5-1.4 2.14 2.14 0 0 1 1.7-.8zm0 .3a2 2 0 0 0-1.4.6 2 2 0 1 0 3.4 1.4 2.05 2.05 0 0 0-2-2zm.2 1.9l.5.7.1.1a.78.78 0 0 0 .4.3h.1a.1.1 0 0 1 .1.1c0 .1-.1.1-.3.1a.72.72 0 0 1-.6-.4l-.5-.7-.1-.1h-.2v.6a.37.37 0 0 0 .1.3.44.44 0 0 0 .3.1c.1 0 .1 0 .1.1a.1.1 0 0 1-.1.1h-.9c-.1 0-.1 0-.1-.1a.1.1 0 0 1 .1-.1.35.35 0 0 0 .2-.1v-1.9a.25.25 0 0 0-.2-.3h-.1c-.1 0-.1 0-.1-.1a.1.1 0 0 1 .1-.1h.9c.6 0 .9.2.9.7a1.2 1.2 0 0 1-.7.7zm-.5 0h.2a.47.47 0 0 0 .5-.5.52.52 0 0 0-.2-.4.76.76 0 0 0-.4-.2c-.1 0-.2 0-.2.1v.8a.2.2 0 0 0 .1.2c-.1-.14-.1 0 0 0z" fill="#fff"/></svg>