<svg xmlns="http://www.w3.org/2000/svg" viewBox="0 0 432.6 103.09"><title>logo</title><path d="M19.7,73.6c-.34-.9-1.51-4.59-1.91-6-.56,2.29-1.28,4.7-1.73,6L11.53,85.68H24.17Zm6,16.56H9.85L5.09,102.53H0L15.61,62.41h4.53L35.7,102.53H30.5ZM60,88.54v-.9c0-7.44-2-11.58-8.67-11.58-5.32,0-8,4.53-8,11.64S46,99,51.36,99C57.68,99,60,95.53,60,88.54m-21.71-1C38.27,77.29,43.19,72,50.64,72a10.8,10.8,0,0,1,9.28,4.42h.34c-.11-1-.34-3.3-.34-4.42V61.9L64.85,60v42.53h-4l-.73-4h-.23c-1.79,2.57-4.64,4.58-9.34,4.58-7.44,0-12.31-5.2-12.31-15.49M69,72.53H74.3l6.38,17.69a65.51,65.51,0,0,1,2.41,7.94h.22c.39-1.85,1.68-5.54,2.52-7.94l6.38-17.69h5.26l-11.42,30H80.4L69,72.53Zm35.59,12H119.9c-.05-5.09-2.29-8.56-7.27-8.56-4.7,0-7.5,3.19-8,8.56m20.42,1v3H104.51c.17,6.77,3.58,10.41,9.57,10.41a23.82,23.82,0,0,0,8.23-1.46l1.4,3.7a22.5,22.5,0,0,1-9.85,2c-8.56,0-14.44-5.32-14.44-15.34,0-9.84,5.32-15.78,13.26-15.78,7.67,0,12.37,5.38,12.37,13.55M156.83,83v19.53H152V83.33c0-4.81-2.13-7.22-6.71-7.22-6.66,0-8.79,3.87-8.79,10.86v15.56h-4.92v-30h4l.73,4.08h.28c2-3.13,5.65-4.64,9.45-4.64,7.17,0,10.86,3.3,10.86,11m20,15.33,1.34,3.52a11.23,11.23,0,0,1-5.49,1.24c-4.69,0-8.78-2-8.78-9.29V67.5l4.92-1.85v6.88h8.68v3.81h-8.68V93.68c0,3.64,2,5.38,4.7,5.38a9,9,0,0,0,3.31-.73m5.76,4.2h4.92v-30h-4.92ZM188,64.42a2.89,2.89,0,1,1-5.76,0c0-2.18,1.28-3.13,2.91-3.13S188,62.24,188,64.42Zm15.5,38.66c-4.2,0-7.11-.67-9.4-1.9l1.45-3.8a22.57,22.57,0,0,0,8.06,1.73c5,0,7.11-1.73,7.11-4.42,0-2.24-1.51-3.58-7.39-5.82s-9.29-4-9.29-9c0-5.09,4.53-8,11.25-8a23.37,23.37,0,0,1,9.57,2l-1.51,4a21.49,21.49,0,0,0-8.4-2c-4,0-6.21,1.4-6.21,3.64,0,2.52,2,3.53,7.72,5.71s9,4.08,9,8.89c0,5.82-4.64,8.85-12,8.85m29.82-4.76,1.34,3.52a11.22,11.22,0,0,1-5.48,1.24c-4.7,0-8.79-2-8.79-9.29V67.5l4.93-1.85v6.88H234v3.81h-8.67V93.68c0,3.64,2,5.38,4.7,5.38a8.9,8.9,0,0,0,3.3-.73M239,64.14c.51,0,.84-.28.84-.73s-.28-.67-.84-.67h-.5v1.4Zm-1.28-2.07H239c1.12,0,1.63.45,1.63,1.34a1.16,1.16,0,0,1-.79,1.12l1.18,2h-.9l-1-1.73h-.62v1.73h-.78V62.07Zm4.53,2.24a3.1,3.1,0,0,0-3.13-3.19,3.16,3.16,0,1,0,3.13,3.19Zm-6.83,0a3.57,3.57,0,0,1,3.7-3.75,3.63,3.63,0,0,1,3.69,3.75,3.7,3.7,0,0,1-7.39,0Zm28.09,18.24c0,9.9,4.59,16.12,13.76,16.12a26.81,26.81,0,0,0,10.3-2l1.45,3.86a25.64,25.64,0,0,1-12.47,2.57c-12.26,0-18.36-8-18.36-20.59C258.2,70.41,265,62,277.4,62a23.67,23.67,0,0,1,10.68,2.19l-1.68,4.42a21.59,21.59,0,0,0-9.06-2.18c-8.56,0-13.82,6.09-13.82,16.11m35.19-10.07a31.18,31.18,0,0,1-.28,4.19h.34c1.9-3.07,5.48-4.64,9.34-4.64,7.28,0,11,3.3,11,11v19.53h-4.87V83.33c0-4.81-2.13-7.21-6.71-7.21-6.72,0-8.79,3.91-8.79,10.91v15.5h-4.92V61.85L298.71,60Zm53.6,30.05h-4l-.72-4h-.23c-2,3.14-5.65,4.53-9.51,4.53-7.22,0-10.91-3.3-10.91-10.91V72.53h5V91.84c0,4.81,2.13,7.16,6.66,7.16,6.66,0,8.84-3.86,8.84-10.85V72.54h4.92Zm25.91-30.22-.62,4.53a15.86,15.86,0,0,0-3.24-.39c-4.65,0-8.73,4-8.73,10.07v16H360.7v-30h4l.56,5.48h.22c1.91-3.3,5-6,9.18-6a18.31,18.31,0,0,1,3.53.33m1.67,15.39c0-11.08,6-15.73,14.05-15.73a19.44,19.44,0,0,1,7.94,1.63l-1.56,4.08a20.71,20.71,0,0,0-6.49-1.4c-6,0-8.84,3.86-8.84,11.36,0,7.22,2.91,11.19,8.56,11.19a15.82,15.82,0,0,0,6.66-1.45l1.51,3.91c-1.68,1.07-4.7,1.79-8.12,1.79-8,0-13.71-4.75-13.71-15.38m32.34-15.22a31.18,31.18,0,0,1-.28,4.19h.34c1.9-3.07,5.48-4.64,9.34-4.64,7.28,0,11,3.3,11,11v19.53h-4.87V83.33c0-4.81-2.13-7.21-6.71-7.21-6.72,0-8.79,3.91-8.79,10.91v15.5h-4.92V61.85L412.23,60ZM14.38,43.08c-4.48,0-8.45-.67-11-1.9L5,37a25.62,25.62,0,0,0,9.62,1.68c5.93,0,9-2.46,9-6.43s-2.18-5.6-9.4-8.23C7.39,21.6,3.92,18.41,3.92,12.2S9.12,2,16.67,2a26.9,26.9,0,0,1,11,2.24L26.07,8.56a24.75,24.75,0,0,0-9.51-2.12c-5,0-7.55,2.34-7.55,5.81,0,4,2.24,5.65,8.73,8.06,7.05,2.63,10.91,5.26,10.91,11.53,0,7.1-5.54,11.24-14.27,11.24M39,24.56H54.27C54.22,19.47,52,16,47,16c-4.7,0-7.5,3.19-8,8.56m20.42,1v3H38.89c.16,6.77,3.58,10.41,9.56,10.41a23.82,23.82,0,0,0,8.23-1.46l1.4,3.7a22.5,22.5,0,0,1-9.85,2c-8.56,0-14.44-5.32-14.44-15.34C33.79,17.9,39.11,12,47.06,12c7.66,0,12.36,5.37,12.36,13.54m.62-13H65.3l6.38,17.69a63.56,63.56,0,0,1,2.4,7.94h.22c.39-1.85,1.68-5.54,2.52-7.94L83.2,12.53h5.26L77,42.53H71.39L60,12.54Zm35.58,12h15.27c0-5.09-2.29-8.56-7.27-8.56-4.7,0-7.5,3.19-8,8.56m20.42,1v3H95.51c.17,6.77,3.58,10.41,9.56,10.41a23.78,23.78,0,0,0,8.23-1.46l1.4,3.7a22.47,22.47,0,0,1-9.85,2c-8.56,0-14.43-5.32-14.43-15.34C90.42,17.9,95.73,12,103.68,12,111.34,12,116,17.34,116,25.51M147.82,23V42.53H143V23.33c0-4.81-2.12-7.21-6.71-7.21-6.66,0-8.78,3.86-8.78,10.85V42.53h-4.93v-30h4l.73,4.08h.28c2-3.13,5.65-4.64,9.46-4.64,7.16,0,10.85,3.3,10.85,11m20,15.33,1.34,3.52a11.23,11.23,0,0,1-5.48,1.23c-4.7,0-8.78-2-8.78-9.28V7.5l4.92-1.85v6.88h8.67v3.81h-8.67V33.68c0,3.64,2,5.38,4.7,5.38a8.9,8.9,0,0,0,3.3-.73m10.69-25.85a32.92,32.92,0,0,1-.28,4.19h.33c1.9-3.07,5.48-4.64,9.35-4.64,7.27,0,11,3.3,11,11V42.53H194V23.33c0-4.81-2.12-7.21-6.71-7.21-6.71,0-8.78,3.91-8.78,10.91v15.5h-4.93V1.85L178.54,0Zm25.17,12.87h13.54l1.68,4.36H205.39Zm40.85,3.19v-.9c0-7.44-2-11.58-8.68-11.58-5.31,0-7.94,4.53-7.94,11.64s2.63,11.3,8,11.3c6.32,0,8.62-3.47,8.62-10.46m-21.71-.95c0-10.3,4.92-15.62,12.36-15.62a10.83,10.83,0,0,1,9.29,4.42h.34c-.11-1-.34-3.3-.34-4.42V1.9L249.42,0V42.53h-4l-.72-4h-.23c-1.79,2.57-4.64,4.59-9.34,4.59-7.45,0-12.31-5.21-12.31-15.5m48.34.44c-7.5.28-9.91,2.41-9.91,6.21,0,3.36,2.24,4.87,5.49,4.87,5,0,8.84-2.74,8.84-8.56V27.86l-4.42.17Zm9.29-5.93V42.53h-3.59l-.95-4.26h-.22c-2.63,3.3-5,4.82-10.07,4.82-5.43,0-9.46-2.8-9.46-8.9s4.59-9.29,14.38-9.57l5.09-.17V22.66c0-5-2.29-6.66-6.21-6.66A19.72,19.72,0,0,0,261,18.3l-1.51-3.7A22.45,22.45,0,0,1,269.73,12c7.28,0,10.74,3.08,10.74,10.07Zm8.72-9.57,6.49,17.07a51.16,51.16,0,0,1,2.52,8.17h.22c.45-1.85,1.51-5.15,2.58-8.23l6.1-17h5.31L299.5,46.67c-2.13,5.65-4,7.72-8,9.28L290,52c2.3-1.06,3.25-2.12,4.48-5.37l1.57-4L283.94,12.53Z"/></svg>
