<svg xmlns="http://www.w3.org/2000/svg" viewBox="0 0 448.58 132.8"><title>sda-logo--wide</title><path d="M50.88,55.8c0-3.8,3.4-7.2,7.4-11.2l3.2-3.2c4.5-4.5,5.3-9.6,2-12.9-.3-.3-.1-.6.2-.4,4.5,2,8,9.5.3,17.1L58.28,51c-4,4-5.9,5.9-6.9,10.7-.1.4-.5.4-.5,0Zm.5,16.3c1-4.8,2.9-6.7,6.9-10.7l6.3-6.3c7.7-7.7,9-15.1,5.1-19.9-.3-.3-.5-.1-.4.3,2.2,6.1-3.7,12.1-6.6,15l-4.4,4.4c-4,4-7.28,7.5-7.4,11.3v5.9C50.88,72.5,51.28,72.5,51.38,72.1ZM56.68,21c0-.4-.4-.4-.5,0-1,4.8-2.9,6.7-6.9,10.7L34.58,46.5c-7.7,7.7-4.8,15.7-.3,17.7.3.2.5-.1.2-.4-3-3.3-1.9-8.9,2.6-13.4l12.2-12.3c4-4,7.4-7.4,7.4-11.2Zm-7.4,6.8c4-4,7.4-7.4,7.4-11.2V10.7c0-.4-.4-.4-.5,0-1,4.8-2.9,6.7-6.9,10.7L34.18,36.5c-8.1,8.2-9.8,15.2-5.8,20.6.3.3.5.1.4-.3-2.2-6.4,4.6-13.1,7.5-16ZM26.08,46.6c.3-4.1,1.8-7.8,8.1-14.1l15.1-15.1c4-4,7.4-7.4,7.4-11.2V.3c0-.4-.4-.4-.5,0-1,4.8-2.9,6.7-6.9,10.7L31.78,28.5c-6.6,6.6-7.5,13.6-6.2,18.1C25.78,47,26.08,47,26.08,46.6ZM47,76.5h-5.9v-.2a.22.22,0,0,1-.2-.2V72.7a.22.22,0,0,1,.2-.2h5.8a.22.22,0,0,0,.2-.2c0-3.1-2.3-5.2-11.6-3.5L15.75,72.15,15.48,72,.08,87.4a1.07,1.07,0,0,0,0,.62.3.3,0,0,0,.3.08c.3,0,33.3-5.7,33.3-5.7,7.6-1.3,11.7,2.3,13,5.7.1.3.5.3.5,0V76.7A.22.22,0,0,0,47,76.5ZM82.58,72,64.9,69l-6.6,6.6c-4,4-7.4,7.4-7.4,11.2v1.1c0,.3.4.3.5,0,1.3-3.4,5.4-7,13-5.7,0,0,33,5.7,33.3,5.7a.3.3,0,0,0,.3-.5Zm-24.3-6.7c-2.5,2.5-4.8,4.8-6.1,7.1h5.5l.6-.6,7.9-7.9c6.7-6.7,7.6-13.7,6.2-18.2-.1-.4-.4-.4-.5,0-.1,3.9-1.1,7.1-8.1,14.1ZM51,76.5h-.1v5.9c0,.4.4.4.5,0a14.9,14.9,0,0,1,2.7-6.1H51.2A.22.22,0,0,0,51,76.5Zm82.28-38.2a19.57,19.57,0,0,1-7.4-1.3l-1.2,3.2a19.92,19.92,0,0,0,8.5,1.5c6.82,0,11-3.2,10.92-8.8,0-4.8-3-6.9-8.4-8.9-5-1.8-6.7-3.1-6.7-6.2,0-2.7,2-4.5,5.8-4.5a19.47,19.47,0,0,1,7.3,1.6l1.3-3.3a21,21,0,0,0-8.5-1.7c-5.8,0-9.8,3.1-9.8,7.9s2.6,7.3,7.9,9.2c5.58,2,7.28,3.2,7.28,6.3S137.88,38.3,133.28,38.3ZM147,30c0-7.7,4.1-12.2,10.2-12.2,5.9-.1,9.5,4.1,9.5,10.4v2.3h-15.8c.1,5.2,2.8,8,7.4,8a18.1,18.1,0,0,0,6.3-1.1l1.1,2.9a17.77,17.77,0,0,1-7.6,1.5C151.48,41.8,147,37.7,147,30Zm3.9-2.6h11.8c0-3.9-1.8-6.6-5.6-6.6C153.48,20.8,151.28,23.3,150.88,27.4ZM181.2,41.2,190,18.1h-4.1L181,31.7c-.6,1.8-1.6,4.7-1.9,6.1h-.2a58.1,58.1,0,0,0-1.9-6.1l-4.9-13.6H168l8.8,23.1ZM191.3,30c0-7.7,4.1-12.2,10.2-12.2,5.88-.1,9.5,4.1,9.5,10.4v2.3H195.2c.1,5.2,2.8,8,7.4,8a18.1,18.1,0,0,0,6.3-1.1l1.1,2.9a17.77,17.77,0,0,1-7.6,1.5C195.8,41.8,191.3,37.7,191.3,30Zm4-2.6H207.1c0-3.9-1.8-6.6-5.6-6.6S195.68,23.3,195.28,27.4Zm23.62,1.9c0-5.4,1.7-8.4,6.8-8.4,3.6,0,5.2,1.9,5.2,5.6V41.3h3.8V26.2h0c0-5.9-2.9-8.5-8.38-8.5a8.48,8.48,0,0,0-7.3,3.6h-.2l-.6-3.2h-3.1V41.3h3.8ZM247,41.6a9,9,0,0,0,4.2-.9l-1-2.7a6.64,6.64,0,0,1-2.58.6c-2.1,0-3.6-1.3-3.6-4.1V21.1h6.68v-3H244V12.9l-3.8,1.4V34.4C240.18,40,243.38,41.6,247,41.6Zm23.8-15.1V41.3h3.8V26.2c0-6-2.9-8.5-8.5-8.5a8.19,8.19,0,0,0-7.2,3.6h-.3a30.49,30.49,0,0,0,.2-3.2l0-9.6L255,9.9V41.3h3.78v-12c0-5.4,1.6-8.4,6.8-8.4C269.18,20.9,270.78,22.8,270.78,26.5Zm19.1,4.9-1.3-3.4h-10.4l1.3,3.4ZM293,29.8c0-7.9,3.8-12,9.5-12a8.5,8.5,0,0,1,7.2,3.4h.3a33.1,33.1,0,0,1-.3-3.4V9.9l3.8-1.5V41.2h-3.1l-.6-3.1h-.2a8.18,8.18,0,0,1-7.2,3.5C296.78,41.7,293,37.7,293,29.8Zm4,.1c0,5.5,2,8.7,6.2,8.7,4.8,0,6.58-2.7,6.58-8.1h0v-.7c0-5.7-1.6-8.9-6.7-8.9C299,20.9,297,24.4,297,29.9Zm20,4.9c0-4.7,3.5-7.1,11.1-7.4l3.9-.1V25.9c0-3.8-1.8-5.1-4.8-5.1a15.33,15.33,0,0,0-6.5,1.8l-1.2-2.8a17.05,17.05,0,0,1,7.9-2c5.68,0,8.38,2.3,8.38,7.7h0V41.3H333l-.7-3.3h-.2c-2,2.5-3.9,3.7-7.8,3.7C320.1,41.7,317,39.5,317,34.8Zm4,.1c0,2.6,1.7,3.8,4.2,3.8,3.9,0,6.8-2.1,6.8-6.6V30l-3.4.1C322.8,30.3,321,32,321,34.9Zm28.5,9.6,10-26.3h-4.1l-4.7,13.1a48,48,0,0,0-2,6.3h-.2a31.41,31.41,0,0,0-1.9-6.3l-5-13.2h-4l9.2,23.3-1.2,3.1c-1,2.5-1.7,3.3-3.5,4.1l1.2,3.1C346.4,50.5,347.9,48.9,349.5,44.5ZM192,65l-4.92,13.6c-.6,1.9-1.6,4.7-1.9,6.1H185a58.11,58.11,0,0,0-1.9-6.1L178.18,65h-4.1l8.8,23.1h4.4l8.8-23.1ZM126.08,88.1h-3.9l12-31h3.52l12,31h-4L142,78.6H129.78Zm9.74-26.75c-.4,1.72-1,3.4-1.24,4.35L131,75.1h9.78l-3.5-9.3C137,65.13,136.15,62.52,135.82,61.35ZM216.08,87a17.77,17.77,0,0,1-7.6,1.5c-6.6,0-11.1-4.2-11.1-11.8s4.1-12.2,10.2-12.2c5.9,0,9.5,4.2,9.52,10.4v2.3H201.3c.1,5.2,2.8,8,7.4,8a18.1,18.1,0,0,0,6.3-1.1Zm-8.55-19.4c-3.67,0-5.75,2.52-6.15,6.6h11.7C213.08,70.32,211.39,67.63,207.53,67.6ZM167.2,56.8l3.8-1.5V88.1h-3.12l-.6-3.1h-.2a8.42,8.42,0,0,1-7.2,3.5c-5.7,0-9.5-4.1-9.5-12s3.8-12,9.5-12a8.36,8.36,0,0,1,7.2,3.4h.3a33.1,33.1,0,0,1-.3-3.4h.12Zm-.12,19.8c0-5.7-1.6-8.9-6.7-8.9a5.55,5.55,0,0,0-2.68.63,5.25,5.25,0,0,0-1.9,1.8,12.17,12.17,0,0,0-1.51,6.56h0c0,5.5,2.1,8.7,6.2,8.7,4.8,0,6.6-2.7,6.6-8.1Zm112.8-1.8c-4.4-1.7-6-2.5-6-4.4,0-1.7,1.7-2.8,4.8-2.8a16.26,16.26,0,0,1,6.5,1.5l1.2-3.1a17.49,17.49,0,0,0-7.4-1.6c-5.2,0-8.7,2.2-8.7,6.1s2.7,5.2,7.2,6.9,5.7,2.8,5.7,4.5c0,2.1-1.6,3.4-5.5,3.4a18.36,18.36,0,0,1-6.2-1.3l-1.1,2.9a15.61,15.61,0,0,0,7.3,1.5c5.7,0,9.2-2.3,9.2-6.8C286.88,78,284.28,76.5,279.88,74.8ZM301.6,85a17.82,17.82,0,0,1-2.6.4c-2.1,0-3.6-1.3-3.6-4.1V67.9h6.7V65h-6.7V59.7l-3.8,1.4V81.4c0,5.6,3.2,7.2,6.8,7.2a8.74,8.74,0,0,0,4.2-.9Zm8-26.4v.06a2.82,2.82,0,0,1-2.9,2.74h-.14a2.73,2.73,0,0,1-2.66-2.8,2.7,2.7,0,0,1,2.8-2.9A2.9,2.9,0,0,1,309.58,58.6Zm-.5,0a2.4,2.4,0,1,0-4.75.5v0a2.4,2.4,0,0,0,1.81,1.85l.05,0h.09a2.36,2.36,0,0,0,.39,0h.13a2.43,2.43,0,0,0,.38,0,2.34,2.34,0,0,0,.41-.13h0a2.4,2.4,0,0,0,1.46-2.14s0,0,0-.07S309.08,58.57,309.08,58.55Zm-1.9.25.9,1.5h-.7l-.8-1.3h-.5v1.3h-.6V56.9h1c.9,0,1.3.3,1.3,1a1,1,0,0,1-.6.9Zm-.55-.3a.58.58,0,0,0,.55-.6c0-.3-.2-.5-.6-.5h-.4v1.1h.45Zm-41.25,6.4h-3.8V88h3.8Zm-11.7,20.5c-2.1,0-3.6-1.3-3.6-4.1V67.9h6.7V65h-6.7V59.7l-3.8,1.4V81.4c0,5.6,3.2,7.2,6.8,7.2a8.74,8.74,0,0,0,4.2-.9l-1-2.7A15.89,15.89,0,0,1,253.68,85.4ZM237,73.3V88.1h3.8V73c0-5.9-2.92-8.5-8.42-8.5a8.48,8.48,0,0,0-7.3,3.6h-.2l-.6-3.2h-3.1V88.1H225v-12c0-5.4,1.6-8.4,6.8-8.4C235.3,67.7,237,69.6,237,73.3Zm26.27-12.19a2.21,2.21,0,0,0,2.41-2.41,2.11,2.11,0,0,0-2.2-2.4c-1.3,0-2.2.7-2.2,2.4A2.21,2.21,0,0,0,263.27,61.11Zm67.51,24c-7.1,0-10.6-4.8-10.6-12.4,0-7.8,4.1-12.5,10.5-12.5a16,16,0,0,1,7,1.7l1.3-3.4a17.42,17.42,0,0,0-8.2-1.7c-9.5,0-14.8,6.5-14.8,15.8,0,9.7,4.7,15.9,14.2,15.9a19.76,19.76,0,0,0,9.6-2l-1.1-3A19.17,19.17,0,0,1,330.78,85.1Zm32.4,3V73c0-6-2.9-8.5-8.5-8.5a8.19,8.19,0,0,0-7.2,3.6h-.3a30.47,30.47,0,0,0,.2-3.2V55.3l-3.8,1.4V88.1h3.8v-12c0-5.4,1.6-8.4,6.8-8.4,3.6,0,5.2,1.9,5.2,5.6V88.1ZM387.8,64.9H384v12c0,5.4-1.7,8.4-6.8,8.4-3.5,0-5.1-1.8-5.1-5.5V64.9h-3.8V80.1c0,5.9,2.8,8.4,8.4,8.4,2.9,0,5.8-1.1,7.3-3.5h.18l.6,3.1h3Zm9.68,4.2h-.2l-.4-4.2h-3.1V88.1h3.8V75.8c0-4.7,3.1-7.8,6.7-7.8a10.07,10.07,0,0,1,2.5.3l.5-3.5a25.13,25.13,0,0,0-2.7-.4C401.28,64.4,399,66.6,397.48,69.1Zm26.1,15.1a11.94,11.94,0,0,1-5.1,1.1c-4.4,0-6.6-3-6.6-8.6,0-5.8,2.2-8.8,6.8-8.8a16.54,16.54,0,0,1,5,1.1l1.2-3.2a14.92,14.92,0,0,0-6.1-1.3c-6.2,0-10.8,3.6-10.8,12.1h0c0,8.2,4.38,11.9,10.48,12a12.76,12.76,0,0,0,6.3-1.4Zm16.5-19.7a8.19,8.19,0,0,0-7.2,3.6h-.3a30.49,30.49,0,0,0,.2-3.2l0-9.6L429,56.7V88.1h3.78v-12c0-5.4,1.6-8.4,6.8-8.4,3.6,0,5.2,1.9,5.2,5.6V88.1h3.8V73C448.58,67,445.68,64.5,440.08,64.5ZM133.8,126.9c0,1.2.1,2.8.1,3.4h-.1l-6.9-10.6H125v12.9h1.48v-7.2c0-1.3,0-2.7-.1-3.5h.1l6.9,10.7,0-.1h1.9V119.6h-1.5Zm20.08-.7c0,4-2.2,6.6-6,6.6-4,0-5.9-2.7-5.9-6.6s1.9-6.6,6-6.6C151.88,119.6,153.88,122.2,153.88,126.2Zm-1.8,0c0-3.2-1.3-5.2-4.2-5.2s-4.3,1.9-4.3,5.2,1.42,5.2,4.3,5.2S152.08,129.4,152.08,126.2Zm13.9.6,3.5,5.8h-1.9l-3.1-5.3h-2.6v5.3h-1.6V119.7h3.5c3.3.1,4.8,1.3,4.8,3.7A3.32,3.32,0,0,1,166,126.8Zm.8-3.3c0-1.7-1-2.3-3.1-2.3h-1.8V126h1.9C165.88,126,166.78,125.2,166.78,123.5Zm7.1-2.3h4v11.4h1.6V121.2h4v-1.4h-9.1Zm23.6,3.9h-6.6v-5.4h-1.6v12.9h1.6v-6h6.6v6h1.6V119.7h-1.6Zm21.2-5.3,5,12.9H222l-1.62-4h-5.1l-1.5,4h-1.6l5-12.9Zm1.1,7.4-1.4-3.9c-.1-.3-.5-1.5-.6-1.9a14.5,14.5,0,0,1-.6,1.9l-1.5,3.9Zm16,3.1h-.1l-4-10.5h-2.4v12.9h1.5v-7.8c0-1.4-.1-2.8-.1-3.5L235,132.7h1.28l4.3-11.3h.1c0,.8-.1,2.2-.1,3.4v7.9h1.6V119.8h-2.4Zm15.1-3.8h4.8v-1.4h-4.8v-4h5.6v-1.4h-7.2v12.8h7.1l.5-1.4h-6Zm17.7.3,3.5,5.8h-1.9l-3.1-5.3h-2.6v5.3H263V119.7h3.5c3.18.1,4.68,1.3,4.68,3.7A3.32,3.32,0,0,1,268.58,126.8Zm.9-3.3c0-1.7-1-2.3-3.1-2.3h-1.8V126h1.9C268.58,126,269.48,125.2,269.48,123.5Zm12-2.3.5-1.4h-4.62v1.4h1.5v10h-1l-.5,1.4H282v-1.4h-1.5v-10Zm12,10.2c-2.9,0-4.4-2-4.4-5.2s1.7-5.2,4.5-5.2a6.53,6.53,0,0,1,2.9.7l.5-1.4a7.12,7.12,0,0,0-3.4-.7c-4,0-6.2,2.6-6.2,6.6s2,6.6,5.9,6.6a7.78,7.78,0,0,0,4-.8l-.5-1.2A10.78,10.78,0,0,1,293.48,131.4Zm15.3-11.6,5,12.9H312l-1.52-4h-5.1l-1.5,4h-1.6l5-12.9Zm1.22,7.4-1.42-3.9c-.1-.3-.5-1.5-.6-1.9a14.5,14.5,0,0,1-.6,1.9l-1.5,3.9Zm18.08-.3c0,1.2.1,2.8.1,3.4h-.1l-6.9-10.6h-1.9v12.9h1.5v-7.2c0-1.3,0-2.7-.1-3.5h.1l6.9,10.7v-.1h1.9V119.6h-1.5Zm26.5-.9c0,4.4-2.5,6.6-6.7,6.6h-3.6V119.7h4C352.18,119.7,354.58,121.9,354.58,126Zm-1.8.2c0-3.4-1.7-5-4.78-5h-2.12v10.1h1.7C351.08,131.3,352.78,129.6,352.78,126.2Zm11.2-5,.5-1.4h-4.6v1.4h1.5v10h-1l-.5,1.4h4.6v-1.4H363v-10Zm11.9,6.8a20.52,20.52,0,0,0-.8,2.8,25.54,25.54,0,0,0-.8-2.8l-2.9-8.3h-1.7l4.6,12.9h1.6l4.6-12.8h-1.7Zm13.8-6.8.5-1.4h-4.6v1.4h1.5v10h-1l-.5,1.4h4.6v-1.4h-1.5v-10Zm11,4.2c-2.1-.8-2.8-1.3-2.8-2.6,0-1.1.8-1.9,2.4-1.9a7.45,7.45,0,0,1,3.1.7l.5-1.4a9.61,9.61,0,0,0-3.6-.7c-2.4,0-4.1,1.3-4.1,3.3s1,2.9,3.3,3.8,3,1.4,3,2.7-1,2.1-2.9,2.1a7.6,7.6,0,0,1-3.1-.5l-.5,1.3a8.47,8.47,0,0,0,3.5.6c2.8,0,4.6-1.3,4.7-3.7C404.18,127.1,403,126.2,400.68,125.4Zm13.1-4.2.5-1.4h-4.6v1.4h1.5v10h-1l-.5,1.4h4.6v-1.4h-1.5v-10Zm17.8,5c0,4-2.1,6.6-6,6.6s-5.9-2.7-5.9-6.6,1.9-6.6,6-6.6C429.58,119.6,431.58,122.2,431.58,126.2Zm-1.8,0c0-3.2-1.3-5.2-4.2-5.2s-4.3,1.9-4.3,5.2,1.4,5.2,4.3,5.2S429.78,129.4,429.78,126.2Zm17,.7c0,1.2.1,2.8.1,3.4h-.1l-6.9-10.6H438v12.9h1.48v-7.2c0-1.3,0-2.7-.1-3.5h.1l6.9,10.7,0-.1h1.9V119.6h-1.5ZM98.85,78.15A2.85,2.85,0,0,1,96,81h-.14a2.73,2.73,0,0,1-2.66-2.8A2.7,2.7,0,0,1,96,75.3h0A2.85,2.85,0,0,1,98.85,78.15Zm-.45,0a2.4,2.4,0,0,0-4.8,0s0,0,0,.06A2.37,2.37,0,0,0,96,80.6h.29a2.25,2.25,0,0,0,1.5-.71l.15-.18L98,79.6a2.38,2.38,0,0,0,.38-1.24c0-.05,0-.1,0-.15Zm-1.7.2.9,1.5h-.8L96,78.6h-.5v1.3h-.62V76.5H96c.9,0,1.3.3,1.3,1A1,1,0,0,1,96.7,78.4Zm-.65-.3a.58.58,0,0,0,.55-.6A.53.53,0,0,0,96,77h-.4v1.1h.45Z" fill="#fff"/></svg>