<svg xmlns="http://www.w3.org/2000/svg" viewBox="0 0 253.6 227.7"><title>Artboard 1</title><path d="M150.9 131.7c-10.2 10.2-15.2 15.1-17.8 27.6-.2.9-1.2.9-1.2 0V144c0-9.8 8.7-18.7 19.1-29l8.3-8.3c11.7-11.7 14.5-25.2 5.2-33.2-.8-.7-.4-1.5.6-1 11.6 5.3 20.7 24.4.9 44.3zm-19.1 39.1v15.3c0 .9 1.1.9 1.2 0 2.6-12.4 7.5-17.4 17.8-27.7l16.2-16.2c19.8-19.8 23.3-39 13.2-51.4-.7-.8-1.4-.3-1 .7 6.7 15.1-9.3 31.1-16.9 38.7l-11.4 11.5c-10.4 10.4-19.1 19.4-19.1 29.1zm-44-49.3c-19.8 19.8-10.7 39 .9 44.3 1 .5 1.4-.4.6-1-9.3-8-6.5-21.6 5.2-33.2l33-33c10.4-10.4 19.1-19.3 19.1-29V54.2c0-.9-1.1-.9-1.2 0-2.6 12.4-7.5 17.3-17.8 27.6l-39.8 39.7zm58.8-78.8V27.3c0-.9-1.1-.9-1.2 0-2.6 12.4-7.5 17.4-17.8 27.7L86.7 95.8c-19.8 19.8-23.3 39-13.2 51.4.7.8 1.4.3 1-.7-6.7-15.1 9.3-31.1 16.9-38.7l36.1-36.1c10.4-10.3 19-19.2 19.1-29zM82.3 73.5c-17.1 17-19.5 35.1-15.8 46.9.3 1 1.2 1.1 1.2 0-.1-9.9 2.8-18.4 20.8-36.4l39-39c10.4-10.4 19.1-19.3 19.1-29V.7c0-.9-1.1-.9-1.2 0-2.6 12.4-7.5 17.3-17.8 27.6zM106.2 197a.65.65 0 0 1-.6-.6v-8.9a.65.65 0 0 1 .6-.6h15a.65.65 0 0 0 .6-.6c0-7.9-6-13.3-30-9.2L40 186S.6 225.4.3 225.8a.79.79 0 0 0-.1 1.1.78.78 0 0 0 .8.2c.7-.1 86.1-14.8 86.1-14.8 19.6-3.3 30.3 6 33.5 14.8.3.8 1.2.7 1.2-.1v-29.5a.65.65 0 0 0-.6-.6zm61.8-18.8l-17.1 17.1c-10.4 10.4-19 19.3-19 29v2.7c0 .7.9.9 1.2.1 3.2-8.7 13.9-18.1 33.5-14.8 0 0 85.4 14.8 86.1 14.8a.89.89 0 0 0 1-.6.78.78 0 0 0-.2-.8c-.3-.4-39.8-39.8-39.8-39.8l-45.7-7.7zm19.1-60.4c-.3-1-1.2-1.1-1.2 0 .1 9.9-2.8 18.4-20.8 36.4l-14.3 14.2c-6.5 6.5-12.3 12.4-15.8 18.4h14.1l1.7-1.7 20.5-20.5c17.1-16.9 19.5-35 15.8-46.8zm-55.3 95c0 .9 1.1.9 1.2 0a36.27 36.27 0 0 1 6.9-15.8h-7.5a.65.65 0 0 0-.6.6v15.2zm109-14.9a6.09 6.09 0 0 1 6.3-6.3 6.21 6.21 0 0 1 6.3 6.3 6.3 6.3 0 0 1-12.6 0zm11.7 0a5.35 5.35 0 1 0-5.3 5.4 5.29 5.29 0 0 0 5.3-5.4zm-7.7-3.8h2.2c1.9 0 2.7.7 2.7 2.2a2.18 2.18 0 0 1-1.3 2l2 3.3h-1.5l-1.7-3h-1.1v3h-1.3v-7.5zm2.1 3.5c.9 0 1.4-.5 1.4-1.2s-.4-1.2-1.4-1.2h-.8v2.4z" fill="#fff"/></svg>